<svg viewBox="0 0 688 982" xmlns="http://www.w3.org/2000/svg" font-family="ui-monospace, SFMono-Regular, Menlo, Consolas, monospace">
<rect width="688" height="982" fill="#0c356a"/>
<defs><pattern id="grd" width="28" height="28" patternUnits="userSpaceOnUse"><path d="M28 0H0V28" fill="none" stroke="#1c4a8a" stroke-width="1"/></pattern></defs><rect width="688" height="982" fill="url(#grd)"/>
<g transform="translate(48,0)">
<rect x="66.0" y="385.0" width="408.0" height="341.0" rx="13" fill="#0e3f7d" stroke="#2f63a8" stroke-width="1.2"/>
<text x="72.0" y="378.0" font-size="11.5" fill="#bcd6ff" font-weight="700" letter-spacing="1.8" font-family="ui-monospace, SFMono-Regular, Menlo, Consolas, monospace">WIRED HOSTS</text>
<path d="M 270.0,177.0 L 270.0,200.0 L 270.0,200.0 L 270.0,252.0" fill="none" stroke="#9dc0f0" stroke-width="1.3" stroke-linecap="round" stroke-linejoin="round" stroke-opacity="1"/>
<circle cx="270.0" cy="177.0" r="2.3" fill="#9dc0f0"/>
<circle cx="270.0" cy="252.0" r="2.3" fill="#9dc0f0"/>
<path d="M 263.0,405.0 L 263.0,322.0 L 228.0,322.0 L 228.0,304.0" fill="none" stroke="#7fd1ff" stroke-width="1.3" stroke-linecap="round" stroke-linejoin="round" stroke-opacity="1"/>
<circle cx="263.0" cy="405.0" r="2.3" fill="#7fd1ff"/>
<circle cx="228.0" cy="304.0" r="2.3" fill="#7fd1ff"/>
<path d="M 215.0,455.0 L 215.0,478.0 L 156.0,478.0 L 156.0,536.0" fill="none" stroke="#9dc0f0" stroke-width="1.3" stroke-linecap="round" stroke-linejoin="round" stroke-opacity="1"/>
<circle cx="215.0" cy="455.0" r="2.3" fill="#9dc0f0"/>
<circle cx="156.0" cy="536.0" r="2.3" fill="#9dc0f0"/>
<path d="M 289.0,455.0 L 289.0,500.0 L 308.0,500.0 L 308.0,536.0" fill="none" stroke="#9dc0f0" stroke-width="1.3" stroke-linecap="round" stroke-linejoin="round" stroke-opacity="1"/>
<circle cx="289.0" cy="455.0" r="2.3" fill="#9dc0f0"/>
<circle cx="308.0" cy="536.0" r="2.3" fill="#9dc0f0"/>
<path d="M 251.0,455.0 L 251.0,511.0 L 232.0,511.0 L 232.0,654.0" fill="none" stroke="#9dc0f0" stroke-width="1.3" stroke-linecap="round" stroke-linejoin="round" stroke-opacity="1"/>
<circle cx="251.0" cy="455.0" r="2.3" fill="#9dc0f0"/>
<circle cx="232.0" cy="654.0" r="2.3" fill="#9dc0f0"/>
<path d="M 325.0,455.0 L 325.0,489.0 L 384.0,489.0 L 384.0,654.0" fill="none" stroke="#9dc0f0" stroke-width="1.3" stroke-linecap="round" stroke-linejoin="round" stroke-opacity="1"/>
<circle cx="325.0" cy="455.0" r="2.3" fill="#9dc0f0"/>
<circle cx="384.0" cy="654.0" r="2.3" fill="#9dc0f0"/>
<text x="270.0" y="228.0" font-size="10" text-anchor="middle" fill="#dbe9ff" font-weight="600" font-family="ui-monospace, SFMono-Regular, Menlo, Consolas, monospace">1G</text>
<rect x="252.8" y="412.0" width="20.4" height="13" rx="3" fill="#0c356a" stroke="#bcd6ff" stroke-width="1"/>
<text x="263.0" y="421.5" font-size="8" text-anchor="middle" fill="#bcd6ff" font-weight="700" font-family="ui-monospace, SFMono-Regular, Menlo, Consolas, monospace">u1</text>
<rect x="214.7" y="283.0" width="26.6" height="13" rx="3" fill="#0c356a" stroke="#bcd6ff" stroke-width="1"/>
<text x="228.0" y="292.5" font-size="8" text-anchor="middle" fill="#bcd6ff" font-weight="700" font-family="ui-monospace, SFMono-Regular, Menlo, Consolas, monospace">te2</text>
<rect x="278.8" y="434.0" width="20.4" height="13" rx="3" fill="#0c356a" stroke="#bcd6ff" stroke-width="1"/>
<text x="289.0" y="443.5" font-size="8" text-anchor="middle" fill="#bcd6ff" font-weight="700" font-family="ui-monospace, SFMono-Regular, Menlo, Consolas, monospace">g2</text>
<rect x="240.8" y="434.0" width="20.4" height="13" rx="3" fill="#0c356a" stroke="#bcd6ff" stroke-width="1"/>
<text x="251.0" y="443.5" font-size="8" text-anchor="middle" fill="#bcd6ff" font-weight="700" font-family="ui-monospace, SFMono-Regular, Menlo, Consolas, monospace">g3</text>
<rect x="314.8" y="434.0" width="20.4" height="13" rx="3" fill="#0c356a" stroke="#bcd6ff" stroke-width="1"/>
<text x="325.0" y="443.5" font-size="8" text-anchor="middle" fill="#bcd6ff" font-weight="700" font-family="ui-monospace, SFMono-Regular, Menlo, Consolas, monospace">g4</text>
<rect x="104.0" y="790.0" width="345.0" height="20" rx="10" fill="#0c356a" stroke="#7fd1ff" stroke-width="1.9"/>
<ellipse cx="104.0" cy="800.0" rx="5.0" ry="10.0" fill="#0c356a" stroke="#7fd1ff" stroke-width="1.6"/>
<ellipse cx="449.0" cy="800.0" rx="5.0" ry="10.0" fill="none" stroke="#7fd1ff" stroke-width="1.6"/>
<text x="276.5" y="804.0" font-size="11.5" text-anchor="middle" fill="#7fd1ff" font-weight="700" font-family="ui-monospace, SFMono-Regular, Menlo, Consolas, monospace" paint-order="stroke" stroke="#0c356a" stroke-width="3.5" stroke-linejoin="round">192.168.86.0/24</text>
<text x="276.5" y="824.0" font-size="9.5" text-anchor="middle" fill="#9dc0f0" font-family="ui-monospace, SFMono-Regular, Menlo, Consolas, monospace">Home LAN</text>
<line x1="156.0" y1="584.0" x2="156.0" y2="790.0" stroke="#7fd1ff" stroke-width="1.7" stroke-linecap="round"/>
<circle cx="156.0" cy="790.0" r="2.5" fill="#7fd1ff"/>
<circle cx="156.0" cy="584.0" r="2.8" fill="#0c356a" stroke="#7fd1ff" stroke-width="1.6"/>
<line x1="156.0" y1="584.0" x2="196.0" y2="594.0" stroke="#7fd1ff" stroke-width="1.35" stroke-linecap="round"/>
<line x1="196.0" y1="583.0" x2="196.0" y2="605.0" stroke="#7fd1ff" stroke-width="1.5" stroke-linecap="square"/>
<text x="203.0" y="591.5" font-size="10.5" text-anchor="start" fill="#7fd1ff" font-weight="700" font-family="ui-monospace, SFMono-Regular, Menlo, Consolas, monospace" paint-order="stroke" stroke="#0c356a" stroke-width="3.2" stroke-linejoin="round">eth0</text>
<text x="203.0" y="603.5" font-size="10.5" text-anchor="start" fill="#7fd1ff" font-weight="600" font-family="ui-monospace, SFMono-Regular, Menlo, Consolas, monospace" paint-order="stroke" stroke="#0c356a" stroke-width="3.2" stroke-linejoin="round">.10</text>
<line x1="232.0" y1="702.0" x2="232.0" y2="790.0" stroke="#7fd1ff" stroke-width="1.7" stroke-linecap="round"/>
<circle cx="232.0" cy="790.0" r="2.5" fill="#7fd1ff"/>
<circle cx="232.0" cy="702.0" r="2.8" fill="#0c356a" stroke="#7fd1ff" stroke-width="1.6"/>
<line x1="232.0" y1="702.0" x2="272.0" y2="712.0" stroke="#7fd1ff" stroke-width="1.35" stroke-linecap="round"/>
<line x1="272.0" y1="701.0" x2="272.0" y2="723.0" stroke="#7fd1ff" stroke-width="1.5" stroke-linecap="square"/>
<text x="279.0" y="709.5" font-size="10.5" text-anchor="start" fill="#7fd1ff" font-weight="700" font-family="ui-monospace, SFMono-Regular, Menlo, Consolas, monospace" paint-order="stroke" stroke="#0c356a" stroke-width="3.2" stroke-linejoin="round">eth0</text>
<text x="279.0" y="721.5" font-size="10.5" text-anchor="start" fill="#7fd1ff" font-weight="600" font-family="ui-monospace, SFMono-Regular, Menlo, Consolas, monospace" paint-order="stroke" stroke="#0c356a" stroke-width="3.2" stroke-linejoin="round">.40</text>
<line x1="287.0" y1="177.0" x2="287.0" y2="790.0" stroke="#7fd1ff" stroke-width="1.7" stroke-linecap="round"/>
<circle cx="287.0" cy="790.0" r="2.5" fill="#7fd1ff"/>
<circle cx="287.0" cy="177.0" r="2.8" fill="#0c356a" stroke="#7fd1ff" stroke-width="1.6"/>
<line x1="287.0" y1="177.0" x2="247.0" y2="187.0" stroke="#7fd1ff" stroke-width="1.35" stroke-linecap="round"/>
<line x1="247.0" y1="176.0" x2="247.0" y2="198.0" stroke="#7fd1ff" stroke-width="1.5" stroke-linecap="square"/>
<text x="240.0" y="184.5" font-size="10.5" text-anchor="end" fill="#7fd1ff" font-weight="700" font-family="ui-monospace, SFMono-Regular, Menlo, Consolas, monospace" paint-order="stroke" stroke="#0c356a" stroke-width="3.2" stroke-linejoin="round">lan0</text>
<text x="240.0" y="196.5" font-size="10.5" text-anchor="end" fill="#7fd1ff" font-weight="600" font-family="ui-monospace, SFMono-Regular, Menlo, Consolas, monospace" paint-order="stroke" stroke="#0c356a" stroke-width="3.2" stroke-linejoin="round">.1</text>
<line x1="342.0" y1="584.0" x2="342.0" y2="790.0" stroke="#7fd1ff" stroke-width="1.7" stroke-linecap="round"/>
<circle cx="342.0" cy="790.0" r="2.5" fill="#7fd1ff"/>
<circle cx="342.0" cy="584.0" r="2.8" fill="#0c356a" stroke="#7fd1ff" stroke-width="1.6"/>
<line x1="342.0" y1="584.0" x2="302.0" y2="594.0" stroke="#7fd1ff" stroke-width="1.35" stroke-linecap="round"/>
<line x1="302.0" y1="583.0" x2="302.0" y2="605.0" stroke="#7fd1ff" stroke-width="1.5" stroke-linecap="square"/>
<text x="295.0" y="591.5" font-size="10.5" text-anchor="end" fill="#7fd1ff" font-weight="700" font-family="ui-monospace, SFMono-Regular, Menlo, Consolas, monospace" paint-order="stroke" stroke="#0c356a" stroke-width="3.2" stroke-linejoin="round">eth0</text>
<text x="295.0" y="603.5" font-size="10.5" text-anchor="end" fill="#7fd1ff" font-weight="600" font-family="ui-monospace, SFMono-Regular, Menlo, Consolas, monospace" paint-order="stroke" stroke="#0c356a" stroke-width="3.2" stroke-linejoin="round">.20</text>
<line x1="397.0" y1="702.0" x2="397.0" y2="790.0" stroke="#7fd1ff" stroke-width="1.7" stroke-linecap="round"/>
<circle cx="397.0" cy="790.0" r="2.5" fill="#7fd1ff"/>
<circle cx="397.0" cy="702.0" r="2.8" fill="#0c356a" stroke="#7fd1ff" stroke-width="1.6"/>
<line x1="397.0" y1="702.0" x2="357.0" y2="712.0" stroke="#7fd1ff" stroke-width="1.35" stroke-linecap="round"/>
<line x1="357.0" y1="701.0" x2="357.0" y2="723.0" stroke="#7fd1ff" stroke-width="1.5" stroke-linecap="square"/>
<text x="350.0" y="709.5" font-size="10.5" text-anchor="end" fill="#7fd1ff" font-weight="700" font-family="ui-monospace, SFMono-Regular, Menlo, Consolas, monospace" paint-order="stroke" stroke="#0c356a" stroke-width="3.2" stroke-linejoin="round">eth0</text>
<text x="350.0" y="721.5" font-size="10.5" text-anchor="end" fill="#7fd1ff" font-weight="600" font-family="ui-monospace, SFMono-Regular, Menlo, Consolas, monospace" paint-order="stroke" stroke="#0c356a" stroke-width="3.2" stroke-linejoin="round">.2</text>
<rect x="218.0" y="866.0" width="104.0" height="20" rx="10" fill="#0c356a" stroke="#86efac" stroke-width="1.9"/>
<ellipse cx="218.0" cy="876.0" rx="5.0" ry="10.0" fill="#0c356a" stroke="#86efac" stroke-width="1.6"/>
<ellipse cx="322.0" cy="876.0" rx="5.0" ry="10.0" fill="none" stroke="#86efac" stroke-width="1.6"/>
<text x="270.0" y="880.0" font-size="11.5" text-anchor="middle" fill="#86efac" font-weight="700" font-family="ui-monospace, SFMono-Regular, Menlo, Consolas, monospace" paint-order="stroke" stroke="#0c356a" stroke-width="3.5" stroke-linejoin="round">192.168.50.0/24</text>
<text x="270.0" y="900.0" font-size="9.5" text-anchor="middle" fill="#9dc0f0" font-family="ui-monospace, SFMono-Regular, Menlo, Consolas, monospace">IoT</text>
<line x1="270.0" y1="177.0" x2="270.0" y2="866.0" stroke="#86efac" stroke-width="1.7" stroke-linecap="round"/>
<circle cx="270.0" cy="866.0" r="2.5" fill="#86efac"/>
<circle cx="270.0" cy="177.0" r="2.8" fill="#0c356a" stroke="#86efac" stroke-width="1.6"/>
<line x1="270.0" y1="177.0" x2="310.0" y2="187.0" stroke="#86efac" stroke-width="1.35" stroke-linecap="round"/>
<line x1="310.0" y1="176.0" x2="310.0" y2="198.0" stroke="#86efac" stroke-width="1.5" stroke-linecap="square"/>
<text x="317.0" y="184.5" font-size="10.5" text-anchor="start" fill="#86efac" font-weight="700" font-family="ui-monospace, SFMono-Regular, Menlo, Consolas, monospace" paint-order="stroke" stroke="#0c356a" stroke-width="3.2" stroke-linejoin="round">iot0</text>
<text x="317.0" y="196.5" font-size="10.5" text-anchor="start" fill="#86efac" font-weight="600" font-family="ui-monospace, SFMono-Regular, Menlo, Consolas, monospace" paint-order="stroke" stroke="#0c356a" stroke-width="3.2" stroke-linejoin="round">.1</text>
<rect x="195.0" y="123.0" width="150" height="54" rx="4" fill="none" stroke="#bcd6ff" stroke-width="1.2"/>
<rect x="205.0" y="137.3" width="18.0" height="13.5" rx="2" fill="none" stroke="#bcd6ff" stroke-width="1.4"/><line x1="205.0" y1="144.0" x2="223.0" y2="144.0" stroke="#bcd6ff" stroke-width="1.4"/><line x1="214.0" y1="137.3" x2="214.0" y2="144.0" stroke="#bcd6ff" stroke-width="1.4"/><line x1="209.5" y1="144.0" x2="209.5" y2="150.8" stroke="#bcd6ff" stroke-width="1.4"/><line x1="218.5" y1="144.0" x2="218.5" y2="150.8" stroke="#bcd6ff" stroke-width="1.4"/>
<text x="229.0" y="146.0" font-size="11.5" fill="#eaf2ff" font-weight="600" dominant-baseline="middle">edge-router</text>
<text x="229.0" y="160.0" font-size="9" fill="#9dc0f0" font-family="ui-monospace, SFMono-Regular, Menlo, Consolas, monospace">192.168.86.1</text>
<rect x="195.0" y="252.0" width="150" height="52" rx="4" fill="none" stroke="#bcd6ff" stroke-width="1.2"/>
<rect x="204.6" y="267.4" width="18.8" height="9.3" rx="3" fill="none" stroke="#bcd6ff" stroke-width="1.4"/><line x1="208.0" y1="270.0" x2="220.0" y2="270.0" stroke="#bcd6ff" stroke-width="1.4"/><path d="M 220.0,270.0 l -2.0,-1.3 M 220.0,270.0 l -2.0,1.3" stroke="#bcd6ff" stroke-width="1.4" fill="none"/><line x1="208.0" y1="274.0" x2="220.0" y2="274.0" stroke="#bcd6ff" stroke-width="1.4"/><path d="M 208.0,274.0 l 2.0,-1.3 M 208.0,274.0 l 2.0,1.3" stroke="#bcd6ff" stroke-width="1.4" fill="none"/>
<text x="229.0" y="274.0" font-size="11.5" fill="#eaf2ff" font-weight="600" dominant-baseline="middle">core-sw</text>
<text x="229.0" y="288.0" font-size="9" fill="#9dc0f0" font-family="ui-monospace, SFMono-Regular, Menlo, Consolas, monospace">192.168.86.2</text>
<rect x="195.0" y="405.0" width="150" height="50" rx="4" fill="none" stroke="#bcd6ff" stroke-width="1.2"/>
<rect x="204.6" y="419.4" width="18.8" height="9.3" rx="3" fill="none" stroke="#bcd6ff" stroke-width="1.4"/><line x1="208.0" y1="422.0" x2="220.0" y2="422.0" stroke="#bcd6ff" stroke-width="1.4"/><path d="M 220.0,422.0 l -2.0,-1.3 M 220.0,422.0 l -2.0,1.3" stroke="#bcd6ff" stroke-width="1.4" fill="none"/><line x1="208.0" y1="426.0" x2="220.0" y2="426.0" stroke="#bcd6ff" stroke-width="1.4"/><path d="M 208.0,426.0 l 2.0,-1.3 M 208.0,426.0 l 2.0,1.3" stroke="#bcd6ff" stroke-width="1.4" fill="none"/>
<text x="229.0" y="426.0" font-size="11.5" fill="#eaf2ff" font-weight="600" dominant-baseline="middle">access-sw</text>
<text x="229.0" y="440.0" font-size="9" fill="#9dc0f0" font-family="ui-monospace, SFMono-Regular, Menlo, Consolas, monospace">192.168.86.3</text>
<rect x="104.0" y="536.0" width="104" height="48" rx="4" fill="none" stroke="#bcd6ff" stroke-width="1.2"/>
<rect x="114.4" y="552.6" width="17.3" height="11.7" rx="3" fill="none" stroke="#bcd6ff" stroke-width="1.4"/><line x1="123.0" y1="564.4" x2="123.0" y2="567.6" stroke="#bcd6ff" stroke-width="1.4"/><line x1="118.7" y1="567.6" x2="127.3" y2="567.6" stroke="#bcd6ff" stroke-width="1.4"/>
<text x="138.0" y="561.0" font-size="11.5" fill="#eaf2ff" font-weight="600" dominant-baseline="middle">workstation</text>
<rect x="256.0" y="536.0" width="104" height="48" rx="4" fill="none" stroke="#bcd6ff" stroke-width="1.2"/>
<rect x="267.5" y="552.1" width="15.0" height="3.9" rx="3" fill="none" stroke="#bcd6ff" stroke-width="1.4"/><circle cx="280.1" cy="554.1" r="1.4" fill="#bcd6ff"/><rect x="267.5" y="558.0" width="15.0" height="3.9" rx="3" fill="none" stroke="#bcd6ff" stroke-width="1.4"/><circle cx="280.1" cy="560.0" r="1.4" fill="#bcd6ff"/><rect x="267.5" y="563.9" width="15.0" height="3.9" rx="3" fill="none" stroke="#bcd6ff" stroke-width="1.4"/><circle cx="280.1" cy="565.9" r="1.4" fill="#bcd6ff"/>
<text x="290.0" y="561.0" font-size="11.5" fill="#eaf2ff" font-weight="600" dominant-baseline="middle">nas-01</text>
<rect x="180.0" y="654.0" width="104" height="48" rx="4" fill="none" stroke="#bcd6ff" stroke-width="1.2"/>
<rect x="192.4" y="673.5" width="15.8" height="9.0" rx="2" fill="none" stroke="#bcd6ff" stroke-width="1.4"/><rect x="208.1" y="675.5" width="3.0" height="5.0" rx="1" fill="none" stroke="#bcd6ff" stroke-width="1.4"/><line x1="197.1" y1="673.5" x2="197.1" y2="669.6" stroke="#bcd6ff" stroke-width="1.4"/><line x1="193.2" y1="669.6" x2="201.0" y2="669.6" stroke="#bcd6ff" stroke-width="1.4"/>
<text x="214.0" y="679.0" font-size="11.5" fill="#eaf2ff" font-weight="600" dominant-baseline="middle">driveway-cam</text>
<rect x="332.0" y="654.0" width="104" height="48" rx="4" fill="none" stroke="#bcd6ff" stroke-width="1.2"/>
<rect x="344.3" y="681.8" width="13.5" height="6.0" rx="3" fill="none" stroke="#bcd6ff" stroke-width="1.4"/><path d="M 347.7,681.1 A 3.3,3.3 0 0 1 354.3,681.1" fill="none" stroke="#bcd6ff" stroke-width="1.4"/><path d="M 344.4,681.1 A 6.6,6.6 0 0 1 357.6,681.1" fill="none" stroke="#bcd6ff" stroke-width="1.4"/><path d="M 341.1,681.1 A 9.9,9.9 0 0 1 360.9,681.1" fill="none" stroke="#bcd6ff" stroke-width="1.4"/>
<text x="366.0" y="679.0" font-size="11.5" fill="#eaf2ff" font-weight="600" dominant-baseline="middle">ap-living</text>
<text x="110" y="947" font-size="11" fill="#9dc0f0" font-weight="700" font-family="ui-monospace, SFMono-Regular, Menlo, Consolas, monospace">LINK SPEED</text>
<line x1="202" y1="944" x2="226" y2="944" stroke="#9dc0f0" stroke-width="3.2" stroke-linecap="round"/>
<text x="232" y="947" font-size="10.5" fill="#9dc0f0" font-family="ui-monospace, SFMono-Regular, Menlo, Consolas, monospace">1G</text>
<line x1="294" y1="944" x2="318" y2="944" stroke="#7fd1ff" stroke-width="3.2" stroke-linecap="round"/>
<text x="324" y="947" font-size="10.5" fill="#9dc0f0" font-family="ui-monospace, SFMono-Regular, Menlo, Consolas, monospace">10G</text>
<rect x="388" y="912" width="236" height="54" fill="none" stroke="#bcd6ff" stroke-width="1.1"/>
<line x1="388" y1="932" x2="624" y2="932" stroke="#bcd6ff" stroke-width="1.1"/>
<text x="396" y="927" font-size="9.5" fill="#9dc0f0" font-family="ui-monospace, SFMono-Regular, Menlo, Consolas, monospace" letter-spacing="1">HOME LAN — ETHERNET TUBES · HYBRID L1+L2/L3</text>
<text x="396" y="948" font-size="9" fill="#9dc0f0" font-family="ui-monospace, SFMono-Regular, Menlo, Consolas, monospace">7 NODES · 6 LINKS · 2 TUBES · REV A · NTS</text>
</g>
</svg>