<svg viewBox="0 0 1878 991" xmlns="http://www.w3.org/2000/svg" font-family="Inter, system-ui, -apple-system, 'Segoe UI', Roboto, sans-serif">
<rect width="1878" height="991" fill="#ffffff"/>
<polyline points="738.9,651.5 861.0,581.0 758.9,522.1 968.1,401.3 1030.4,437.3" fill="none" stroke="#2563eb" stroke-width="2.25" stroke-linecap="round" stroke-linejoin="round"/>
<circle cx="738.9" cy="651.5" r="4.5" fill="#ffffff" stroke="#2563eb" stroke-width="2.25"/>
<polyline points="528.4,727.0 551.0,714.0 95.4,451.0 336.2,312.0 750.3,551.1 952.5,434.3 994.1,458.3" fill="none" stroke="#16a34a" stroke-width="2.25" stroke-linecap="round" stroke-linejoin="round"/>
<circle cx="528.4" cy="727.0" r="4.5" fill="#ffffff" stroke="#16a34a" stroke-width="2.25"/>
<polyline points="552.7,741.0 575.2,728.0 81.6,443.0 292.9,321.0 731.2,574.1 944.7,450.8 975.9,468.8" fill="none" stroke="#db2777" stroke-width="2.25" stroke-linecap="round" stroke-linejoin="round"/>
<circle cx="552.7" cy="741.0" r="4.5" fill="#ffffff" stroke="#db2777" stroke-width="2.25"/>
<polyline points="576.9,755.0 599.5,742.0 67.7,435.0 264.3,321.5 726.9,588.6 918.7,477.8 939.5,489.8" fill="none" stroke="#d97706" stroke-width="2.25" stroke-linecap="round" stroke-linejoin="round"/>
<circle cx="576.9" cy="755.0" r="4.5" fill="#ffffff" stroke="#d97706" stroke-width="2.25"/>
<polyline points="781.3,676.0 859.3,631.0 766.7,577.6 910.9,494.3 921.3,500.3" fill="none" stroke="#0891b2" stroke-width="2.25" stroke-linecap="round" stroke-linejoin="round"/>
<circle cx="781.3" cy="676.0" r="4.5" fill="#ffffff" stroke="#0891b2" stroke-width="2.25"/>
<polyline points="823.8,700.5 931.1,638.5 754.6,536.6 960.3,417.8 1012.2,447.8" fill="none" stroke="#7c3aed" stroke-width="2.25" stroke-linecap="round" stroke-linejoin="round"/>
<circle cx="823.8" cy="700.5" r="4.5" fill="#ffffff" stroke="#7c3aed" stroke-width="2.25"/>
<polyline points="601.2,769.0 667.9,730.5 559.6,668.0 623.3,631.3 640.2,641.0" fill="none" stroke="#dc2626" stroke-width="2.25" stroke-linecap="round" stroke-linejoin="round"/>
<circle cx="601.2" cy="769.0" r="4.5" fill="#ffffff" stroke="#dc2626" stroke-width="2.25"/>
<polyline points="1127.5,446.8 1205.4,401.8 694.7,107.0 758.4,70.3 775.3,80.0" fill="none" stroke="#0d9488" stroke-width="2.25" stroke-linecap="round" stroke-linejoin="round"/>
<circle cx="1127.5" cy="446.8" r="4.5" fill="#ffffff" stroke="#0d9488" stroke-width="2.25"/>
<polyline points="1161.7,466.6 1210.2,438.6 944.1,285.0 1037.2,231.3 1054.1,241.0" fill="none" stroke="#4d7c0f" stroke-width="2.25" stroke-linecap="round" stroke-linejoin="round"/>
<circle cx="1161.7" cy="466.6" r="4.5" fill="#ffffff" stroke="#4d7c0f" stroke-width="2.25"/>
<polyline points="1195.9,486.4 1174.5,474.0 1316.1,392.3 1333.0,402.0" fill="none" stroke="#9333ea" stroke-width="2.25" stroke-linecap="round" stroke-linejoin="round"/>
<circle cx="1195.9" cy="486.4" r="4.5" fill="#ffffff" stroke="#9333ea" stroke-width="2.25"/>
<polyline points="1230.2,506.2 1293.4,469.7 1516.6,598.5 1594.9,553.3 1611.8,563.0" fill="none" stroke="#dc2626" stroke-width="2.25" stroke-linecap="round" stroke-linejoin="round"/>
<circle cx="1230.2" cy="506.2" r="4.5" fill="#ffffff" stroke="#dc2626" stroke-width="2.25"/>
<polyline points="625.4,783.0 647.9,770.0 53.9,427.0 235.7,322.0 841.1,671.5 977.0,593.0" fill="none" stroke="#c2410c" stroke-width="2.25" stroke-linecap="round" stroke-linejoin="round"/>
<circle cx="625.4" cy="783.0" r="4.5" fill="#ffffff" stroke="#c2410c" stroke-width="2.25"/>
<polyline points="649.7,797.0 672.2,784.0 40.0,419.0 622.8,82.5 797.8,183.5 860.1,147.5" fill="none" stroke="#c2410c" stroke-width="2.25" stroke-linecap="round" stroke-linejoin="round"/>
<circle cx="649.7" cy="797.0" r="4.5" fill="#ffffff" stroke="#c2410c" stroke-width="2.25"/>
<polygon points="775.3,98.5 945.0,196.5 945.0,170.5 775.3,72.5" fill="#52269c" stroke="#d7dbe2" stroke-width="1"/><polygon points="1001.3,164.0 945.0,196.5 945.0,170.5 1001.3,138.0" fill="#6630c2" stroke="#d7dbe2" stroke-width="1"/><polygon points="831.5,40.0 1001.3,138.0 945.0,170.5 775.3,72.5" fill="#e2d4fb" stroke="#d7dbe2" stroke-width="1"/>
<rect x="881.8" y="98.2" width="13.0" height="3.4" rx="3" fill="none" stroke="#7c3aed" stroke-width="1.3"/><circle cx="892.7" cy="99.9" r="1.3" fill="#7c3aed"/><rect x="881.8" y="103.6" width="13.0" height="3.4" rx="3" fill="none" stroke="#7c3aed" stroke-width="1.3"/><circle cx="892.7" cy="105.3" r="1.3" fill="#7c3aed"/><rect x="881.8" y="108.9" width="13.0" height="3.4" rx="3" fill="none" stroke="#7c3aed" stroke-width="1.3"/><circle cx="892.7" cy="110.6" r="1.3" fill="#7c3aed"/>
<text x="945.0" y="211.5" font-size="10" text-anchor="middle" fill="#1f2430" font-weight="600">postgres-01</text>
<polygon points="1054.1,259.5 1223.9,357.5 1223.9,331.5 1054.1,233.5" fill="#342e97" stroke="#d7dbe2" stroke-width="1"/><polygon points="1280.1,325.0 1223.9,357.5 1223.9,331.5 1280.1,299.0" fill="#4139bc" stroke="#d7dbe2" stroke-width="1"/><polygon points="1110.4,201.0 1280.1,299.0 1223.9,331.5 1054.1,233.5" fill="#d8d6f9" stroke="#d7dbe2" stroke-width="1"/>
<rect x="1162.1" y="259.4" width="10.1" height="13.7" rx="3" fill="none" stroke="#4f46e5" stroke-width="1.3"/><line x1="1163.9" y1="262.7" x2="1169.0" y2="262.7" stroke="#4f46e5" stroke-width="1.3"/><circle cx="1170.2" cy="262.7" r="1.3" fill="#4f46e5"/><line x1="1163.9" y1="266.3" x2="1169.0" y2="266.3" stroke="#4f46e5" stroke-width="1.3"/><circle cx="1170.2" cy="266.3" r="1.3" fill="#4f46e5"/><line x1="1163.9" y1="269.8" x2="1169.0" y2="269.8" stroke="#4f46e5" stroke-width="1.3"/><circle cx="1170.2" cy="269.8" r="1.3" fill="#4f46e5"/>
<text x="1223.9" y="372.5" font-size="10" text-anchor="middle" fill="#1f2430" font-weight="600">redis-01</text>
<polygon points="1333.0,420.5 1502.7,518.5 1502.7,492.5 1333.0,394.5" fill="#342e97" stroke="#d7dbe2" stroke-width="1"/><polygon points="1559.0,486.0 1502.7,518.5 1502.7,492.5 1559.0,460.0" fill="#4139bc" stroke="#d7dbe2" stroke-width="1"/><polygon points="1389.3,362.0 1559.0,460.0 1502.7,492.5 1333.0,394.5" fill="#d8d6f9" stroke="#d7dbe2" stroke-width="1"/>
<rect x="1440.9" y="420.4" width="10.1" height="13.7" rx="3" fill="none" stroke="#4f46e5" stroke-width="1.3"/><line x1="1442.7" y1="423.7" x2="1447.8" y2="423.7" stroke="#4f46e5" stroke-width="1.3"/><circle cx="1449.0" cy="423.7" r="1.3" fill="#4f46e5"/><line x1="1442.7" y1="427.3" x2="1447.8" y2="427.3" stroke="#4f46e5" stroke-width="1.3"/><circle cx="1449.0" cy="427.3" r="1.3" fill="#4f46e5"/><line x1="1442.7" y1="430.8" x2="1447.8" y2="430.8" stroke="#4f46e5" stroke-width="1.3"/><circle cx="1449.0" cy="430.8" r="1.3" fill="#4f46e5"/>
<text x="1502.7" y="533.5" font-size="10" text-anchor="middle" fill="#1f2430" font-weight="600">rabbit-01</text>
<polygon points="891.4,543.6 1062.6,642.4 1062.6,616.4 891.4,517.6" fill="#342e97" stroke="#d7dbe2" stroke-width="1"/><polygon points="1264.4,525.9 1062.6,642.4 1062.6,616.4 1264.4,499.9" fill="#4139bc" stroke="#d7dbe2" stroke-width="1"/><polygon points="1093.2,401.1 1264.4,499.9 1062.6,616.4 891.4,517.6" fill="#d8d6f9" stroke="#d7dbe2" stroke-width="1"/>
<rect x="1072.9" y="501.9" width="10.1" height="13.7" rx="3" fill="none" stroke="#4f46e5" stroke-width="1.3"/><line x1="1074.7" y1="505.2" x2="1079.8" y2="505.2" stroke="#4f46e5" stroke-width="1.3"/><circle cx="1081.0" cy="505.2" r="1.3" fill="#4f46e5"/><line x1="1074.7" y1="508.8" x2="1079.8" y2="508.8" stroke="#4f46e5" stroke-width="1.3"/><circle cx="1081.0" cy="508.8" r="1.3" fill="#4f46e5"/><line x1="1074.7" y1="512.3" x2="1079.8" y2="512.3" stroke="#4f46e5" stroke-width="1.3"/><circle cx="1081.0" cy="512.3" r="1.3" fill="#4f46e5"/>
<text x="1062.6" y="657.4" font-size="10" text-anchor="middle" fill="#1f2430" font-weight="600">app-01</text>
<polygon points="1611.8,581.5 1781.6,679.5 1781.6,653.5 1611.8,555.5" fill="#342e97" stroke="#d7dbe2" stroke-width="1"/><polygon points="1837.9,647.0 1781.6,679.5 1781.6,653.5 1837.9,621.0" fill="#4139bc" stroke="#d7dbe2" stroke-width="1"/><polygon points="1668.1,523.0 1837.9,621.0 1781.6,653.5 1611.8,555.5" fill="#d8d6f9" stroke="#d7dbe2" stroke-width="1"/>
<rect x="1719.8" y="581.4" width="10.1" height="13.7" rx="3" fill="none" stroke="#4f46e5" stroke-width="1.3"/><line x1="1721.6" y1="584.7" x2="1726.7" y2="584.7" stroke="#4f46e5" stroke-width="1.3"/><circle cx="1727.9" cy="584.7" r="1.3" fill="#4f46e5"/><line x1="1721.6" y1="588.3" x2="1726.7" y2="588.3" stroke="#4f46e5" stroke-width="1.3"/><circle cx="1727.9" cy="588.3" r="1.3" fill="#4f46e5"/><line x1="1721.6" y1="591.8" x2="1726.7" y2="591.8" stroke="#4f46e5" stroke-width="1.3"/><circle cx="1727.9" cy="591.8" r="1.3" fill="#4f46e5"/>
<text x="1781.6" y="694.5" font-size="10" text-anchor="middle" fill="#1f2430" font-weight="600">idp-01</text>
<polygon points="640.2,659.5 809.9,757.5 809.9,731.5 640.2,633.5" fill="#342e97" stroke="#d7dbe2" stroke-width="1"/><polygon points="866.2,725.0 809.9,757.5 809.9,731.5 866.2,699.0" fill="#4139bc" stroke="#d7dbe2" stroke-width="1"/><polygon points="696.4,601.0 866.2,699.0 809.9,731.5 640.2,633.5" fill="#d8d6f9" stroke="#d7dbe2" stroke-width="1"/>
<rect x="748.1" y="659.4" width="10.1" height="13.7" rx="3" fill="none" stroke="#4f46e5" stroke-width="1.3"/><line x1="749.9" y1="662.7" x2="755.0" y2="662.7" stroke="#4f46e5" stroke-width="1.3"/><circle cx="756.2" cy="662.7" r="1.3" fill="#4f46e5"/><line x1="749.9" y1="666.3" x2="755.0" y2="666.3" stroke="#4f46e5" stroke-width="1.3"/><circle cx="756.2" cy="666.3" r="1.3" fill="#4f46e5"/><line x1="749.9" y1="669.8" x2="755.0" y2="669.8" stroke="#4f46e5" stroke-width="1.3"/><circle cx="756.2" cy="669.8" r="1.3" fill="#4f46e5"/>
<text x="809.9" y="772.5" font-size="10" text-anchor="middle" fill="#1f2430" font-weight="600">edge-proxy</text>
<polygon points="448.8,745.0 618.5,843.0 618.5,817.0 448.8,719.0" fill="#2f3845" stroke="#d7dbe2" stroke-width="1"/><polygon points="673.9,811.0 618.5,843.0 618.5,817.0 673.9,785.0" fill="#3a4656" stroke="#d7dbe2" stroke-width="1"/><polygon points="504.2,687.0 673.9,785.0 618.5,817.0 448.8,719.0" fill="#d7dade" stroke="#d7dbe2" stroke-width="1"/>
<rect x="553.9" y="745.6" width="14.9" height="10.1" rx="3" fill="none" stroke="#475569" stroke-width="1.3"/><line x1="561.3" y1="755.8" x2="561.3" y2="758.6" stroke="#475569" stroke-width="1.3"/><line x1="557.6" y1="758.6" x2="565.1" y2="758.6" stroke="#475569" stroke-width="1.3"/>
<text x="618.5" y="858.0" font-size="10" text-anchor="middle" fill="#1f2430" font-weight="600">Ops Workstation</text>
<path d="M 1030.4,437.3 L 1016.6,437.4 L 1023.5,425.3 Z" fill="#2563eb"/>
<path d="M 994.1,458.3 L 980.2,458.4 L 987.1,446.3 Z" fill="#16a34a"/>
<path d="M 975.9,468.8 L 962.0,468.9 L 969.0,456.8 Z" fill="#db2777"/>
<path d="M 939.5,489.8 L 925.6,489.9 L 932.6,477.8 Z" fill="#d97706"/>
<path d="M 921.3,500.3 L 908.6,505.9 L 910.2,492.0 Z" fill="#0891b2"/>
<path d="M 1012.2,447.8 L 998.4,447.9 L 1005.3,435.8 Z" fill="#7c3aed"/>
<path d="M 640.2,641.0 L 626.3,641.3 L 633.0,629.1 Z" fill="#dc2626"/>
<path d="M 775.3,80.0 L 761.4,80.3 L 768.1,68.1 Z" fill="#0d9488"/>
<path d="M 1054.1,241.0 L 1040.2,241.3 L 1046.9,229.1 Z" fill="#4d7c0f"/>
<path d="M 1333.0,402.0 L 1319.1,402.3 L 1325.8,390.1 Z" fill="#9333ea"/>
<path d="M 1611.8,563.0 L 1598.0,563.3 L 1604.7,551.1 Z" fill="#dc2626"/>
<path d="M 977.0,593.0 L 970.1,605.0 L 963.2,593.0 Z" fill="#c2410c"/>
<path d="M 860.1,147.5 L 853.2,159.5 L 846.3,147.5 Z" fill="#c2410c"/>
<path d="M 868.7,458.7 L 865.2,464.7 L 861.8,458.7 Z" fill="#2563eb"/>
<text transform="rotate(-30.0 863.5 461.7)" x="863.5" y="457.7" font-size="8.5" text-anchor="middle" fill="#2563eb" font-weight="600" font-family="ui-monospace, SFMono-Regular, Menlo, Consolas, monospace" paint-order="stroke" stroke="#ffffff" stroke-width="2.2" stroke-linejoin="round">App HTTP · tcp/8080</text>
<path d="M 548.4,434.5 L 541.5,434.6 L 545.0,428.5 Z" fill="#16a34a"/>
<text transform="rotate(30.0 543.2 431.5)" x="543.2" y="427.5" font-size="8.5" text-anchor="middle" fill="#16a34a" font-weight="600" font-family="ui-monospace, SFMono-Regular, Menlo, Consolas, monospace" paint-order="stroke" stroke="#ffffff" stroke-width="2.2" stroke-linejoin="round">Admin Console · tcp/8443</text>
<path d="M 517.2,450.5 L 510.3,450.6 L 513.8,444.5 Z" fill="#db2777"/>
<text transform="rotate(30.0 512.0 447.5)" x="512.0" y="443.5" font-size="8.5" text-anchor="middle" fill="#db2777" font-weight="600" font-family="ui-monospace, SFMono-Regular, Menlo, Consolas, monospace" paint-order="stroke" stroke="#ffffff" stroke-width="2.2" stroke-linejoin="round">Prometheus Metrics · tcp/9090</text>
<path d="M 500.8,458.0 L 493.9,458.1 L 497.3,452.0 Z" fill="#d97706"/>
<text transform="rotate(30.0 495.6 455.0)" x="495.6" y="451.0" font-size="8.5" text-anchor="middle" fill="#d97706" font-weight="600" font-family="ui-monospace, SFMono-Regular, Menlo, Consolas, monospace" paint-order="stroke" stroke="#ffffff" stroke-width="2.2" stroke-linejoin="round">Debug / pprof · tcp/6060</text>
<path d="M 844.0,533.0 L 840.6,539.0 L 837.1,532.9 Z" fill="#0891b2"/>
<text transform="rotate(-30.0 838.8 536.0)" x="838.8" y="532.0" font-size="8.5" text-anchor="middle" fill="#0891b2" font-weight="600" font-family="ui-monospace, SFMono-Regular, Menlo, Consolas, monospace" paint-order="stroke" stroke="#ffffff" stroke-width="2.2" stroke-linejoin="round">WebSocket Events · tcp/8082</text>
<path d="M 862.6,474.2 L 859.2,480.2 L 855.7,474.2 Z" fill="#7c3aed"/>
<text transform="rotate(-30.0 857.4 477.2)" x="857.4" y="473.2" font-size="8.5" text-anchor="middle" fill="#7c3aed" font-weight="600" font-family="ui-monospace, SFMono-Regular, Menlo, Consolas, monospace" paint-order="stroke" stroke="#ffffff" stroke-width="2.2" stroke-linejoin="round">gRPC API · tcp/50051</text>
<path d="M 608.5,696.3 L 615.5,696.2 L 612.0,702.3 Z" fill="#dc2626"/>
<text transform="rotate(30.0 613.7 699.3)" x="613.7" y="695.3" font-size="8.5" text-anchor="middle" fill="#dc2626" font-weight="600" font-family="ui-monospace, SFMono-Regular, Menlo, Consolas, monospace" paint-order="stroke" stroke="#ffffff" stroke-width="2.2" stroke-linejoin="round">HTTPS (public) · tcp/443</text>
<path d="M 944.9,251.4 L 951.8,251.4 L 948.3,257.4 Z" fill="#0d9488"/>
<text transform="rotate(30.0 950.1 254.4)" x="950.1" y="250.4" font-size="8.5" text-anchor="middle" fill="#0d9488" font-weight="600" font-family="ui-monospace, SFMono-Regular, Menlo, Consolas, monospace" paint-order="stroke" stroke="#ffffff" stroke-width="2.2" stroke-linejoin="round">PostgreSQL · tcp/5432</text>
<path d="M 1072.0,358.8 L 1078.9,358.8 L 1075.4,364.8 Z" fill="#4d7c0f"/>
<text transform="rotate(30.0 1077.2 361.8)" x="1077.2" y="357.8" font-size="8.5" text-anchor="middle" fill="#4d7c0f" font-weight="600" font-family="ui-monospace, SFMono-Regular, Menlo, Consolas, monospace" paint-order="stroke" stroke="#ffffff" stroke-width="2.2" stroke-linejoin="round">Redis · tcp/6379</text>
<path d="M 1250.5,430.1 L 1247.0,436.1 L 1243.6,430.1 Z" fill="#9333ea"/>
<text transform="rotate(-30.0 1245.3 433.1)" x="1245.3" y="429.1" font-size="8.5" text-anchor="middle" fill="#9333ea" font-weight="600" font-family="ui-monospace, SFMono-Regular, Menlo, Consolas, monospace" paint-order="stroke" stroke="#ffffff" stroke-width="2.2" stroke-linejoin="round">AMQP · tcp/5672</text>
<path d="M 1410.2,537.1 L 1403.3,537.1 L 1406.7,531.1 Z" fill="#dc2626"/>
<text transform="rotate(30.0 1405.0 534.1)" x="1405.0" y="530.1" font-size="8.5" text-anchor="middle" fill="#dc2626" font-weight="600" font-family="ui-monospace, SFMono-Regular, Menlo, Consolas, monospace" paint-order="stroke" stroke="#ffffff" stroke-width="2.2" stroke-linejoin="round">OIDC / OAuth2 · tcp/443</text>
<path d="M 543.6,499.8 L 536.7,499.8 L 540.1,493.7 Z" fill="#c2410c"/>
<text transform="rotate(30.0 538.4 496.8)" x="538.4" y="492.8" font-size="8.5" text-anchor="middle" fill="#c2410c" font-weight="600" font-family="ui-monospace, SFMono-Regular, Menlo, Consolas, monospace" paint-order="stroke" stroke="#ffffff" stroke-width="2.2" stroke-linejoin="round">Ping · icmp</text>
<path d="M 336.6,247.8 L 333.2,253.8 L 329.7,247.7 Z" fill="#c2410c"/>
<text transform="rotate(-30.0 331.4 250.8)" x="331.4" y="246.8" font-size="8.5" text-anchor="middle" fill="#c2410c" font-weight="600" font-family="ui-monospace, SFMono-Regular, Menlo, Consolas, monospace" paint-order="stroke" stroke="#ffffff" stroke-width="2.2" stroke-linejoin="round">Ping · icmp</text>
<text x="18" y="929.0" font-size="11" fill="#6b7280" font-weight="700" font-family="ui-monospace, SFMono-Regular, Menlo, Consolas, monospace" letter-spacing="1">SERVICES</text>
<line x1="100.0" y1="925.5" x2="120.0" y2="925.5" stroke="#2563eb" stroke-width="3.2" stroke-linecap="round"/>
<text x="126.0" y="929.0" font-size="10" fill="#6b7280" font-family="ui-monospace, SFMono-Regular, Menlo, Consolas, monospace">tcp/8080 · App HTTP</text>
<line x1="255.9" y1="925.5" x2="275.9" y2="925.5" stroke="#16a34a" stroke-width="3.2" stroke-linecap="round"/>
<text x="281.9" y="929.0" font-size="10" fill="#6b7280" font-family="ui-monospace, SFMono-Regular, Menlo, Consolas, monospace">tcp/8443 · Admin Console</text>
<line x1="442.3" y1="925.5" x2="462.3" y2="925.5" stroke="#db2777" stroke-width="3.2" stroke-linecap="round"/>
<text x="468.3" y="929.0" font-size="10" fill="#6b7280" font-family="ui-monospace, SFMono-Regular, Menlo, Consolas, monospace">tcp/9090 · Prometheus Metrics</text>
<line x1="659.2" y1="925.5" x2="679.2" y2="925.5" stroke="#d97706" stroke-width="3.2" stroke-linecap="round"/>
<text x="685.2" y="929.0" font-size="10" fill="#6b7280" font-family="ui-monospace, SFMono-Regular, Menlo, Consolas, monospace">tcp/6060 · Debug / pprof</text>
<line x1="845.6" y1="925.5" x2="865.6" y2="925.5" stroke="#0891b2" stroke-width="3.2" stroke-linecap="round"/>
<text x="871.6" y="929.0" font-size="10" fill="#6b7280" font-family="ui-monospace, SFMono-Regular, Menlo, Consolas, monospace">tcp/8082 · WebSocket Events</text>
<line x1="1050.3" y1="925.5" x2="1070.3" y2="925.5" stroke="#7c3aed" stroke-width="3.2" stroke-linecap="round"/>
<text x="1076.3" y="929.0" font-size="10" fill="#6b7280" font-family="ui-monospace, SFMono-Regular, Menlo, Consolas, monospace">tcp/50051 · gRPC API</text>
<line x1="1212.3" y1="925.5" x2="1232.3" y2="925.5" stroke="#dc2626" stroke-width="3.2" stroke-linecap="round"/>
<text x="1238.3" y="929.0" font-size="10" fill="#6b7280" font-family="ui-monospace, SFMono-Regular, Menlo, Consolas, monospace">tcp/443 · HTTPS (public)</text>
<line x1="1398.7" y1="925.5" x2="1418.7" y2="925.5" stroke="#0d9488" stroke-width="3.2" stroke-linecap="round"/>
<text x="1424.7" y="929.0" font-size="10" fill="#6b7280" font-family="ui-monospace, SFMono-Regular, Menlo, Consolas, monospace">tcp/5432 · PostgreSQL</text>
<line x1="1566.8" y1="925.5" x2="1586.8" y2="925.5" stroke="#4d7c0f" stroke-width="3.2" stroke-linecap="round"/>
<text x="1592.8" y="929.0" font-size="10" fill="#6b7280" font-family="ui-monospace, SFMono-Regular, Menlo, Consolas, monospace">tcp/6379 · Redis</text>
<line x1="1704.4" y1="925.5" x2="1724.4" y2="925.5" stroke="#9333ea" stroke-width="3.2" stroke-linecap="round"/>
<text x="1730.4" y="929.0" font-size="10" fill="#6b7280" font-family="ui-monospace, SFMono-Regular, Menlo, Consolas, monospace">tcp/5672 · AMQP</text>
<line x1="100.0" y1="940.5" x2="120.0" y2="940.5" stroke="#c2410c" stroke-width="3.2" stroke-linecap="round"/>
<text x="126.0" y="944.0" font-size="10" fill="#6b7280" font-family="ui-monospace, SFMono-Regular, Menlo, Consolas, monospace">icmp · Ping</text>
<text x="18" y="966.0" font-size="10" fill="#6b7280" font-family="ui-monospace, SFMono-Regular, Menlo, Consolas, monospace">○ OPENS THE CONNECTION · ▶ DIRECTION OF TRAFFIC · ARROWHEAD LANDS ON THE LISTENING PORT</text>
<text x="18" y="24" font-size="12.5" fill="#1f2430" font-weight="700" letter-spacing="0.4">App Platform — Service Flows</text>
<text x="18" y="39" font-size="9.5" fill="#6b7280" font-family="ui-monospace, SFMono-Regular, Menlo, Consolas, monospace" letter-spacing="1">TRAFFIC · L4 FLOWS · 13 FLOWS · 11 SERVICES · ISOMETRIC</text>
</svg>