<svg viewBox="0 0 1396 1124" xmlns="http://www.w3.org/2000/svg" font-family="Inter, system-ui, -apple-system, 'Segoe UI', Roboto, sans-serif">
<defs><filter id="sh" x="-20%" y="-20%" width="140%" height="140%"><feDropShadow dx="0" dy="1.5" stdDeviation="2.2" flood-color="#0f172a" flood-opacity="0.16"/></filter></defs>
<rect width="1396" height="1124" fill="#ffffff"/>
<path d="M 674.0,731.0 L 674.0,598.0 Q 674.0,590.0 666.0,590.0 L 564.1,590.0 Q 556.1,590.0 556.1,582.0 L 556.1,356.5 Q 556.1,348.5 564.1,348.5 L 654.1,348.5" fill="none" stroke="#2563eb" stroke-width="2.25" stroke-linecap="round" stroke-linejoin="round"/>
<circle cx="674.0" cy="731.0" r="4.5" fill="#ffffff" stroke="#2563eb" stroke-width="2.25"/>
<path d="M 628.0,928.0 L 628.0,910.0 Q 628.0,902.0 620.0,902.0 L 110.0,902.0 Q 102.0,902.0 102.0,894.0 L 102.0,632.0 Q 102.0,624.0 110.0,624.0 L 572.1,624.0 Q 580.1,624.0 580.1,616.0 L 580.1,398.5 Q 580.1,390.5 588.1,390.5 L 654.1,390.5" fill="none" stroke="#16a34a" stroke-width="2.25" stroke-linecap="round" stroke-linejoin="round"/>
<circle cx="628.0" cy="928.0" r="4.5" fill="#ffffff" stroke="#16a34a" stroke-width="2.25"/>
<path d="M 656.0,928.0 L 656.0,910.0 Q 656.0,902.0 648.0,902.0 L 94.0,902.0 Q 86.0,902.0 86.0,894.0 L 86.0,666.0 Q 86.0,658.0 94.0,658.0 L 584.1,658.0 Q 592.1,658.0 592.1,650.0 L 592.1,419.5 Q 592.1,411.5 600.1,411.5 L 654.1,411.5" fill="none" stroke="#db2777" stroke-width="2.25" stroke-linecap="round" stroke-linejoin="round"/>
<circle cx="656.0" cy="928.0" r="4.5" fill="#ffffff" stroke="#db2777" stroke-width="2.25"/>
<path d="M 684.0,928.0 L 684.0,910.0 Q 684.0,902.0 676.0,902.0 L 78.0,902.0 Q 70.0,902.0 70.0,894.0 L 70.0,683.0 Q 70.0,675.0 78.0,675.0 L 596.1,675.0 Q 604.1,675.0 604.1,667.0 L 604.1,461.5 Q 604.1,453.5 612.1,453.5 L 654.1,453.5" fill="none" stroke="#d97706" stroke-width="2.25" stroke-linecap="round" stroke-linejoin="round"/>
<circle cx="684.0" cy="928.0" r="4.5" fill="#ffffff" stroke="#d97706" stroke-width="2.25"/>
<path d="M 723.0,731.0 L 723.0,649.0 Q 723.0,641.0 715.0,641.0 L 624.1,641.0 Q 616.1,641.0 616.1,633.0 L 616.1,482.5 Q 616.1,474.5 624.1,474.5 L 654.1,474.5" fill="none" stroke="#0891b2" stroke-width="2.25" stroke-linecap="round" stroke-linejoin="round"/>
<circle cx="723.0" cy="731.0" r="4.5" fill="#ffffff" stroke="#0891b2" stroke-width="2.25"/>
<path d="M 772.0,731.0 L 772.0,615.0 Q 772.0,607.0 764.0,607.0 L 576.1,607.0 Q 568.1,607.0 568.1,599.0 L 568.1,377.5 Q 568.1,369.5 576.1,369.5 L 654.1,369.5" fill="none" stroke="#7c3aed" stroke-width="2.25" stroke-linecap="round" stroke-linejoin="round"/>
<circle cx="772.0" cy="731.0" r="4.5" fill="#ffffff" stroke="#7c3aed" stroke-width="2.25"/>
<path d="M 712.0,928.0 L 712.0,859.0 Q 712.0,851.0 704.0,851.0 L 595.0,851.0 Q 587.0,851.0 587.0,843.0 L 587.0,785.5 Q 587.0,777.5 595.0,777.5 L 625.0,777.5" fill="none" stroke="#dc2626" stroke-width="2.25" stroke-linecap="round" stroke-linejoin="round"/>
<circle cx="712.0" cy="928.0" r="4.5" fill="#ffffff" stroke="#dc2626" stroke-width="2.25"/>
<path d="M 693.7,302.0 L 693.7,220.0 Q 693.7,212.0 685.7,212.0 L 112.0,212.0 Q 104.0,212.0 104.0,204.0 L 104.0,146.5 Q 104.0,138.5 112.0,138.5 L 142.0,138.5" fill="none" stroke="#0d9488" stroke-width="2.25" stroke-linecap="round" stroke-linejoin="round"/>
<circle cx="693.7" cy="302.0" r="4.5" fill="#ffffff" stroke="#0d9488" stroke-width="2.25"/>
<path d="M 733.2,302.0 L 733.2,254.0 Q 733.2,246.0 725.2,246.0 L 434.0,246.0 Q 426.0,246.0 426.0,238.0 L 426.0,146.5 Q 426.0,138.5 434.0,138.5 L 464.0,138.5" fill="none" stroke="#4d7c0f" stroke-width="2.25" stroke-linecap="round" stroke-linejoin="round"/>
<circle cx="733.2" cy="302.0" r="4.5" fill="#ffffff" stroke="#4d7c0f" stroke-width="2.25"/>
<path d="M 772.8,302.0 L 756.0,302.0 Q 748.0,302.0 748.0,294.0 L 748.0,146.5 Q 748.0,138.5 756.0,138.5 L 786.0,138.5" fill="none" stroke="#9333ea" stroke-width="2.25" stroke-linecap="round" stroke-linejoin="round"/>
<circle cx="772.8" cy="302.0" r="4.5" fill="#ffffff" stroke="#9333ea" stroke-width="2.25"/>
<path d="M 812.3,302.0 L 812.3,237.0 Q 812.3,229.0 820.3,229.0 L 1062.0,229.0 Q 1070.0,229.0 1070.0,221.0 L 1070.0,146.5 Q 1070.0,138.5 1078.0,138.5 L 1108.0,138.5" fill="none" stroke="#dc2626" stroke-width="2.25" stroke-linecap="round" stroke-linejoin="round"/>
<circle cx="812.3" cy="302.0" r="4.5" fill="#ffffff" stroke="#dc2626" stroke-width="2.25"/>
<path d="M 740.0,928.0 L 740.0,910.0 Q 740.0,902.0 732.0,902.0 L 62.0,902.0 Q 54.0,902.0 54.0,894.0 L 54.0,700.0 Q 54.0,692.0 62.0,692.0 L 745.0,692.0 Q 753.0,692.0 753.0,684.0 L 753.0,558.0" fill="none" stroke="#c2410c" stroke-width="2.25" stroke-linecap="round" stroke-linejoin="round"/>
<circle cx="740.0" cy="928.0" r="4.5" fill="#ffffff" stroke="#c2410c" stroke-width="2.25"/>
<path d="M 768.0,928.0 L 768.0,910.0 Q 768.0,902.0 760.0,902.0 L 46.0,902.0 Q 38.0,902.0 38.0,894.0 L 38.0,237.0 Q 38.0,229.0 46.0,229.0 L 232.0,229.0 Q 240.0,229.0 240.0,221.0 L 240.0,180.0" fill="none" stroke="#c2410c" stroke-width="2.25" stroke-linecap="round" stroke-linejoin="round"/>
<circle cx="768.0" cy="928.0" r="4.5" fill="#ffffff" stroke="#c2410c" stroke-width="2.25"/>
<line x1="753.0" y1="535.0" x2="753.0" y2="542.0" stroke="#c2410c" stroke-width="2"/>
<rect x="733.2" y="542.0" width="39.6" height="16" rx="8" fill="#ffffff" stroke="#c2410c" stroke-width="1.5"/>
<text x="753.0" y="553.5" font-size="9.5" text-anchor="middle" fill="#c2410c" font-weight="700" font-family="ui-monospace, SFMono-Regular, Menlo, Consolas, monospace">icmp</text>
<line x1="240.0" y1="157.0" x2="240.0" y2="164.0" stroke="#c2410c" stroke-width="2"/>
<rect x="220.2" y="164.0" width="39.6" height="16" rx="8" fill="#ffffff" stroke="#c2410c" stroke-width="1.5"/>
<text x="240.0" y="175.5" font-size="9.5" text-anchor="middle" fill="#c2410c" font-weight="700" font-family="ui-monospace, SFMono-Regular, Menlo, Consolas, monospace">icmp</text>
<rect x="600.0" y="928.0" width="196" height="64" rx="8" fill="#ffffff" stroke="#d7dbe2" stroke-width="1.2" filter="url(#sh)"/>
<rect x="612.8" y="952.2" width="18.4" height="12.5" rx="3" fill="none" stroke="#475569" stroke-width="1.4"/><line x1="622.0" y1="964.6" x2="622.0" y2="968.2" stroke="#475569" stroke-width="1.4"/><line x1="617.4" y1="968.2" x2="626.6" y2="968.2" stroke="#475569" stroke-width="1.4"/>
<text x="642.0" y="960.0" font-size="12" fill="#1f2430" font-weight="700" dominant-baseline="middle">Ops Workstation</text>
<rect x="625.0" y="731.0" width="196" height="65" rx="8" fill="#ffffff" stroke="#d7dbe2" stroke-width="1.2" filter="url(#sh)"/>
<rect x="640.8" y="740.6" width="12.5" height="16.8" rx="3" fill="none" stroke="#4f46e5" stroke-width="1.4"/><line x1="643.0" y1="744.6" x2="649.2" y2="744.6" stroke="#4f46e5" stroke-width="1.4"/><circle cx="650.7" cy="744.6" r="1.4" fill="#4f46e5"/><line x1="643.0" y1="749.0" x2="649.2" y2="749.0" stroke="#4f46e5" stroke-width="1.4"/><circle cx="650.7" cy="749.0" r="1.4" fill="#4f46e5"/><line x1="643.0" y1="753.4" x2="649.2" y2="753.4" stroke="#4f46e5" stroke-width="1.4"/><circle cx="650.7" cy="753.4" r="1.4" fill="#4f46e5"/>
<text x="667.0" y="749.0" font-size="12" fill="#1f2430" font-weight="700" dominant-baseline="middle">edge-proxy</text>
<line x1="625.0" y1="767.0" x2="821.0" y2="767.0" stroke="#d7dbe2" stroke-width="1"/>
<text x="811.0" y="749.0" font-size="8.5" text-anchor="end" fill="#6b7280" font-family="ui-monospace, SFMono-Regular, Menlo, Consolas, monospace" dominant-baseline="middle">1 SERVICES</text>
<rect x="654.1" y="302.0" width="197.7" height="233" rx="8" fill="#ffffff" stroke="#d7dbe2" stroke-width="1.2" filter="url(#sh)"/>
<rect x="669.9" y="311.6" width="12.5" height="16.8" rx="3" fill="none" stroke="#4f46e5" stroke-width="1.4"/><line x1="672.2" y1="315.6" x2="678.4" y2="315.6" stroke="#4f46e5" stroke-width="1.4"/><circle cx="679.9" cy="315.6" r="1.4" fill="#4f46e5"/><line x1="672.2" y1="320.0" x2="678.4" y2="320.0" stroke="#4f46e5" stroke-width="1.4"/><circle cx="679.9" cy="320.0" r="1.4" fill="#4f46e5"/><line x1="672.2" y1="324.4" x2="678.4" y2="324.4" stroke="#4f46e5" stroke-width="1.4"/><circle cx="679.9" cy="324.4" r="1.4" fill="#4f46e5"/>
<text x="696.1" y="320.0" font-size="12" fill="#1f2430" font-weight="700" dominant-baseline="middle">app-01</text>
<line x1="654.1" y1="338.0" x2="851.8" y2="338.0" stroke="#d7dbe2" stroke-width="1"/>
<text x="841.8" y="320.0" font-size="8.5" text-anchor="end" fill="#6b7280" font-family="ui-monospace, SFMono-Regular, Menlo, Consolas, monospace" dominant-baseline="middle">9 SERVICES</text>
<rect x="142.0" y="92.0" width="196" height="65" rx="8" fill="#ffffff" stroke="#d7dbe2" stroke-width="1.2" filter="url(#sh)"/>
<rect x="156.0" y="101.8" width="16.0" height="4.2" rx="3" fill="none" stroke="#7c3aed" stroke-width="1.4"/><circle cx="169.4" cy="103.8" r="1.4" fill="#7c3aed"/><rect x="156.0" y="107.9" width="16.0" height="4.2" rx="3" fill="none" stroke="#7c3aed" stroke-width="1.4"/><circle cx="169.4" cy="110.0" r="1.4" fill="#7c3aed"/><rect x="156.0" y="114.1" width="16.0" height="4.2" rx="3" fill="none" stroke="#7c3aed" stroke-width="1.4"/><circle cx="169.4" cy="116.2" r="1.4" fill="#7c3aed"/>
<text x="184.0" y="110.0" font-size="12" fill="#1f2430" font-weight="700" dominant-baseline="middle">postgres-01</text>
<line x1="142.0" y1="128.0" x2="338.0" y2="128.0" stroke="#d7dbe2" stroke-width="1"/>
<text x="328.0" y="110.0" font-size="8.5" text-anchor="end" fill="#6b7280" font-family="ui-monospace, SFMono-Regular, Menlo, Consolas, monospace" dominant-baseline="middle">1 SERVICES</text>
<rect x="464.0" y="92.0" width="196" height="65" rx="8" fill="#ffffff" stroke="#d7dbe2" stroke-width="1.2" filter="url(#sh)"/>
<rect x="479.8" y="101.6" width="12.5" height="16.8" rx="3" fill="none" stroke="#4f46e5" stroke-width="1.4"/><line x1="482.0" y1="105.6" x2="488.2" y2="105.6" stroke="#4f46e5" stroke-width="1.4"/><circle cx="489.7" cy="105.6" r="1.4" fill="#4f46e5"/><line x1="482.0" y1="110.0" x2="488.2" y2="110.0" stroke="#4f46e5" stroke-width="1.4"/><circle cx="489.7" cy="110.0" r="1.4" fill="#4f46e5"/><line x1="482.0" y1="114.4" x2="488.2" y2="114.4" stroke="#4f46e5" stroke-width="1.4"/><circle cx="489.7" cy="114.4" r="1.4" fill="#4f46e5"/>
<text x="506.0" y="110.0" font-size="12" fill="#1f2430" font-weight="700" dominant-baseline="middle">redis-01</text>
<line x1="464.0" y1="128.0" x2="660.0" y2="128.0" stroke="#d7dbe2" stroke-width="1"/>
<text x="650.0" y="110.0" font-size="8.5" text-anchor="end" fill="#6b7280" font-family="ui-monospace, SFMono-Regular, Menlo, Consolas, monospace" dominant-baseline="middle">1 SERVICES</text>
<rect x="786.0" y="92.0" width="196" height="65" rx="8" fill="#ffffff" stroke="#d7dbe2" stroke-width="1.2" filter="url(#sh)"/>
<rect x="801.8" y="101.6" width="12.5" height="16.8" rx="3" fill="none" stroke="#4f46e5" stroke-width="1.4"/><line x1="804.0" y1="105.6" x2="810.2" y2="105.6" stroke="#4f46e5" stroke-width="1.4"/><circle cx="811.7" cy="105.6" r="1.4" fill="#4f46e5"/><line x1="804.0" y1="110.0" x2="810.2" y2="110.0" stroke="#4f46e5" stroke-width="1.4"/><circle cx="811.7" cy="110.0" r="1.4" fill="#4f46e5"/><line x1="804.0" y1="114.4" x2="810.2" y2="114.4" stroke="#4f46e5" stroke-width="1.4"/><circle cx="811.7" cy="114.4" r="1.4" fill="#4f46e5"/>
<text x="828.0" y="110.0" font-size="12" fill="#1f2430" font-weight="700" dominant-baseline="middle">rabbit-01</text>
<line x1="786.0" y1="128.0" x2="982.0" y2="128.0" stroke="#d7dbe2" stroke-width="1"/>
<text x="972.0" y="110.0" font-size="8.5" text-anchor="end" fill="#6b7280" font-family="ui-monospace, SFMono-Regular, Menlo, Consolas, monospace" dominant-baseline="middle">1 SERVICES</text>
<rect x="1108.0" y="92.0" width="196" height="65" rx="8" fill="#ffffff" stroke="#d7dbe2" stroke-width="1.2" filter="url(#sh)"/>
<rect x="1123.8" y="101.6" width="12.5" height="16.8" rx="3" fill="none" stroke="#4f46e5" stroke-width="1.4"/><line x1="1126.0" y1="105.6" x2="1132.2" y2="105.6" stroke="#4f46e5" stroke-width="1.4"/><circle cx="1133.7" cy="105.6" r="1.4" fill="#4f46e5"/><line x1="1126.0" y1="110.0" x2="1132.2" y2="110.0" stroke="#4f46e5" stroke-width="1.4"/><circle cx="1133.7" cy="110.0" r="1.4" fill="#4f46e5"/><line x1="1126.0" y1="114.4" x2="1132.2" y2="114.4" stroke="#4f46e5" stroke-width="1.4"/><circle cx="1133.7" cy="114.4" r="1.4" fill="#4f46e5"/>
<text x="1150.0" y="110.0" font-size="12" fill="#1f2430" font-weight="700" dominant-baseline="middle">idp-01</text>
<line x1="1108.0" y1="128.0" x2="1304.0" y2="128.0" stroke="#d7dbe2" stroke-width="1"/>
<text x="1294.0" y="110.0" font-size="8.5" text-anchor="end" fill="#6b7280" font-family="ui-monospace, SFMono-Regular, Menlo, Consolas, monospace" dominant-baseline="middle">1 SERVICES</text>
<rect x="633.0" y="768.0" width="180.0" height="19.0" rx="3" fill="#dc2626" fill-opacity="0.09"/>
<rect x="633.0" y="768.0" width="3" height="19.0" rx="1.5" fill="#dc2626"/>
<text x="643.0" y="777.5" font-size="10.5" fill="#1f2430" dominant-baseline="middle">HTTPS (public)</text>
<text x="807.0" y="777.5" font-size="9.5" text-anchor="end" fill="#dc2626" font-weight="700" font-family="ui-monospace, SFMono-Regular, Menlo, Consolas, monospace" dominant-baseline="middle">tcp/443</text>
<rect x="662.1" y="339.0" width="181.7" height="19.0" rx="3" fill="#2563eb" fill-opacity="0.09"/>
<rect x="662.1" y="339.0" width="3" height="19.0" rx="1.5" fill="#2563eb"/>
<text x="672.1" y="348.5" font-size="10.5" fill="#1f2430" dominant-baseline="middle">App HTTP</text>
<text x="837.8" y="348.5" font-size="9.5" text-anchor="end" fill="#2563eb" font-weight="700" font-family="ui-monospace, SFMono-Regular, Menlo, Consolas, monospace" dominant-baseline="middle">tcp/8080</text>
<rect x="662.1" y="360.0" width="181.7" height="19.0" rx="3" fill="#7c3aed" fill-opacity="0.09"/>
<rect x="662.1" y="360.0" width="3" height="19.0" rx="1.5" fill="#7c3aed"/>
<text x="672.1" y="369.5" font-size="10.5" fill="#1f2430" dominant-baseline="middle">gRPC API</text>
<text x="837.8" y="369.5" font-size="9.5" text-anchor="end" fill="#7c3aed" font-weight="700" font-family="ui-monospace, SFMono-Regular, Menlo, Consolas, monospace" dominant-baseline="middle">tcp/50051</text>
<rect x="662.1" y="381.0" width="181.7" height="19.0" rx="3" fill="#16a34a" fill-opacity="0.09"/>
<rect x="662.1" y="381.0" width="3" height="19.0" rx="1.5" fill="#16a34a"/>
<text x="672.1" y="390.5" font-size="10.5" fill="#1f2430" dominant-baseline="middle">Admin Console</text>
<text x="837.8" y="390.5" font-size="9.5" text-anchor="end" fill="#16a34a" font-weight="700" font-family="ui-monospace, SFMono-Regular, Menlo, Consolas, monospace" dominant-baseline="middle">tcp/8443</text>
<rect x="662.1" y="402.0" width="181.7" height="19.0" rx="3" fill="#db2777" fill-opacity="0.09"/>
<rect x="662.1" y="402.0" width="3" height="19.0" rx="1.5" fill="#db2777"/>
<text x="672.1" y="411.5" font-size="10.5" fill="#1f2430" dominant-baseline="middle">Prometheus Metrics</text>
<text x="837.8" y="411.5" font-size="9.5" text-anchor="end" fill="#db2777" font-weight="700" font-family="ui-monospace, SFMono-Regular, Menlo, Consolas, monospace" dominant-baseline="middle">tcp/9090</text>
<rect x="662.1" y="423.0" width="181.7" height="19.0" rx="3" fill="#2563eb" fill-opacity="0.09"/>
<rect x="662.1" y="423.0" width="3" height="19.0" rx="1.5" fill="#2563eb"/>
<text x="672.1" y="432.5" font-size="10.5" fill="#1f2430" dominant-baseline="middle">Health Probe</text>
<text x="837.8" y="432.5" font-size="9.5" text-anchor="end" fill="#2563eb" font-weight="700" font-family="ui-monospace, SFMono-Regular, Menlo, Consolas, monospace" dominant-baseline="middle">tcp/8081</text>
<rect x="662.1" y="444.0" width="181.7" height="19.0" rx="3" fill="#d97706" fill-opacity="0.09"/>
<rect x="662.1" y="444.0" width="3" height="19.0" rx="1.5" fill="#d97706"/>
<text x="672.1" y="453.5" font-size="10.5" fill="#1f2430" dominant-baseline="middle">Debug / pprof</text>
<text x="837.8" y="453.5" font-size="9.5" text-anchor="end" fill="#d97706" font-weight="700" font-family="ui-monospace, SFMono-Regular, Menlo, Consolas, monospace" dominant-baseline="middle">tcp/6060</text>
<rect x="662.1" y="465.0" width="181.7" height="19.0" rx="3" fill="#0891b2" fill-opacity="0.09"/>
<rect x="662.1" y="465.0" width="3" height="19.0" rx="1.5" fill="#0891b2"/>
<text x="672.1" y="474.5" font-size="10.5" fill="#1f2430" dominant-baseline="middle">WebSocket Events</text>
<text x="837.8" y="474.5" font-size="9.5" text-anchor="end" fill="#0891b2" font-weight="700" font-family="ui-monospace, SFMono-Regular, Menlo, Consolas, monospace" dominant-baseline="middle">tcp/8082</text>
<rect x="662.1" y="486.0" width="181.7" height="19.0" rx="3" fill="#2563eb" fill-opacity="0.09"/>
<rect x="662.1" y="486.0" width="3" height="19.0" rx="1.5" fill="#2563eb"/>
<text x="672.1" y="495.5" font-size="10.5" fill="#1f2430" dominant-baseline="middle">Scheduler RPC</text>
<text x="837.8" y="495.5" font-size="9.5" text-anchor="end" fill="#2563eb" font-weight="700" font-family="ui-monospace, SFMono-Regular, Menlo, Consolas, monospace" dominant-baseline="middle">tcp/7070</text>
<rect x="662.1" y="507.0" width="181.7" height="19.0" rx="3" fill="#2563eb" fill-opacity="0.09"/>
<rect x="662.1" y="507.0" width="3" height="19.0" rx="1.5" fill="#2563eb"/>
<text x="672.1" y="516.5" font-size="10.5" fill="#1f2430" dominant-baseline="middle">Audit Sink</text>
<text x="837.8" y="516.5" font-size="9.5" text-anchor="end" fill="#2563eb" font-weight="700" font-family="ui-monospace, SFMono-Regular, Menlo, Consolas, monospace" dominant-baseline="middle">tcp/7071</text>
<rect x="150.0" y="129.0" width="180.0" height="19.0" rx="3" fill="#0d9488" fill-opacity="0.09"/>
<rect x="150.0" y="129.0" width="3" height="19.0" rx="1.5" fill="#0d9488"/>
<text x="160.0" y="138.5" font-size="10.5" fill="#1f2430" dominant-baseline="middle">PostgreSQL</text>
<text x="324.0" y="138.5" font-size="9.5" text-anchor="end" fill="#0d9488" font-weight="700" font-family="ui-monospace, SFMono-Regular, Menlo, Consolas, monospace" dominant-baseline="middle">tcp/5432</text>
<rect x="472.0" y="129.0" width="180.0" height="19.0" rx="3" fill="#4d7c0f" fill-opacity="0.09"/>
<rect x="472.0" y="129.0" width="3" height="19.0" rx="1.5" fill="#4d7c0f"/>
<text x="482.0" y="138.5" font-size="10.5" fill="#1f2430" dominant-baseline="middle">Redis</text>
<text x="646.0" y="138.5" font-size="9.5" text-anchor="end" fill="#4d7c0f" font-weight="700" font-family="ui-monospace, SFMono-Regular, Menlo, Consolas, monospace" dominant-baseline="middle">tcp/6379</text>
<rect x="794.0" y="129.0" width="180.0" height="19.0" rx="3" fill="#9333ea" fill-opacity="0.09"/>
<rect x="794.0" y="129.0" width="3" height="19.0" rx="1.5" fill="#9333ea"/>
<text x="804.0" y="138.5" font-size="10.5" fill="#1f2430" dominant-baseline="middle">AMQP</text>
<text x="968.0" y="138.5" font-size="9.5" text-anchor="end" fill="#9333ea" font-weight="700" font-family="ui-monospace, SFMono-Regular, Menlo, Consolas, monospace" dominant-baseline="middle">tcp/5672</text>
<rect x="1116.0" y="129.0" width="180.0" height="19.0" rx="3" fill="#dc2626" fill-opacity="0.09"/>
<rect x="1116.0" y="129.0" width="3" height="19.0" rx="1.5" fill="#dc2626"/>
<text x="1126.0" y="138.5" font-size="10.5" fill="#1f2430" dominant-baseline="middle">OIDC / OAuth2</text>
<text x="1290.0" y="138.5" font-size="9.5" text-anchor="end" fill="#dc2626" font-weight="700" font-family="ui-monospace, SFMono-Regular, Menlo, Consolas, monospace" dominant-baseline="middle">tcp/443</text>
<path d="M 654.1,348.5 L 642.1,355.5 L 642.1,341.5 Z" fill="#2563eb"/>
<path d="M 654.1,390.5 L 642.1,397.5 L 642.1,383.5 Z" fill="#16a34a"/>
<path d="M 654.1,411.5 L 642.1,418.5 L 642.1,404.5 Z" fill="#db2777"/>
<path d="M 654.1,453.5 L 642.1,460.5 L 642.1,446.5 Z" fill="#d97706"/>
<path d="M 654.1,474.5 L 642.1,481.5 L 642.1,467.5 Z" fill="#0891b2"/>
<path d="M 654.1,369.5 L 642.1,376.5 L 642.1,362.5 Z" fill="#7c3aed"/>
<path d="M 625.0,777.5 L 613.0,784.5 L 613.0,770.5 Z" fill="#dc2626"/>
<path d="M 142.0,138.5 L 130.0,145.5 L 130.0,131.5 Z" fill="#0d9488"/>
<path d="M 464.0,138.5 L 452.0,145.5 L 452.0,131.5 Z" fill="#4d7c0f"/>
<path d="M 786.0,138.5 L 774.0,145.5 L 774.0,131.5 Z" fill="#9333ea"/>
<path d="M 1108.0,138.5 L 1096.0,145.5 L 1096.0,131.5 Z" fill="#dc2626"/>
<path d="M 753.0,558.0 L 760.0,570.0 L 746.0,570.0 Z" fill="#c2410c"/>
<path d="M 240.0,180.0 L 247.0,192.0 L 233.0,192.0 Z" fill="#c2410c"/>
<text x="92" y="1062" font-size="11" fill="#6b7280" font-weight="700" font-family="ui-monospace, SFMono-Regular, Menlo, Consolas, monospace" letter-spacing="1">SERVICES</text>
<line x1="180.0" y1="1058.5" x2="200.0" y2="1058.5" stroke="#2563eb" stroke-width="3.2" stroke-linecap="round"/>
<text x="206.0" y="1062.0" font-size="10" fill="#6b7280" font-family="ui-monospace, SFMono-Regular, Menlo, Consolas, monospace">tcp/8080 · App HTTP</text>
<line x1="335.7" y1="1058.5" x2="355.7" y2="1058.5" stroke="#16a34a" stroke-width="3.2" stroke-linecap="round"/>
<text x="361.7" y="1062.0" font-size="10" fill="#6b7280" font-family="ui-monospace, SFMono-Regular, Menlo, Consolas, monospace">tcp/8443 · Admin Console</text>
<line x1="521.9" y1="1058.5" x2="541.9" y2="1058.5" stroke="#db2777" stroke-width="3.2" stroke-linecap="round"/>
<text x="547.9" y="1062.0" font-size="10" fill="#6b7280" font-family="ui-monospace, SFMono-Regular, Menlo, Consolas, monospace">tcp/9090 · Prometheus Metrics</text>
<line x1="738.5" y1="1058.5" x2="758.5" y2="1058.5" stroke="#d97706" stroke-width="3.2" stroke-linecap="round"/>
<text x="764.5" y="1062.0" font-size="10" fill="#6b7280" font-family="ui-monospace, SFMono-Regular, Menlo, Consolas, monospace">tcp/6060 · Debug / pprof</text>
<line x1="924.6" y1="1058.5" x2="944.6" y2="1058.5" stroke="#0891b2" stroke-width="3.2" stroke-linecap="round"/>
<text x="950.6" y="1062.0" font-size="10" fill="#6b7280" font-family="ui-monospace, SFMono-Regular, Menlo, Consolas, monospace">tcp/8082 · WebSocket Events</text>
<line x1="1129.1" y1="1058.5" x2="1149.1" y2="1058.5" stroke="#7c3aed" stroke-width="3.2" stroke-linecap="round"/>
<text x="1155.1" y="1062.0" font-size="10" fill="#6b7280" font-family="ui-monospace, SFMono-Regular, Menlo, Consolas, monospace">tcp/50051 · gRPC API</text>
<line x1="180.0" y1="1073.5" x2="200.0" y2="1073.5" stroke="#dc2626" stroke-width="3.2" stroke-linecap="round"/>
<text x="206.0" y="1077.0" font-size="10" fill="#6b7280" font-family="ui-monospace, SFMono-Regular, Menlo, Consolas, monospace">tcp/443 · HTTPS (public)</text>
<line x1="366.2" y1="1073.5" x2="386.2" y2="1073.5" stroke="#0d9488" stroke-width="3.2" stroke-linecap="round"/>
<text x="392.2" y="1077.0" font-size="10" fill="#6b7280" font-family="ui-monospace, SFMono-Regular, Menlo, Consolas, monospace">tcp/5432 · PostgreSQL</text>
<line x1="534.0" y1="1073.5" x2="554.0" y2="1073.5" stroke="#4d7c0f" stroke-width="3.2" stroke-linecap="round"/>
<text x="560.0" y="1077.0" font-size="10" fill="#6b7280" font-family="ui-monospace, SFMono-Regular, Menlo, Consolas, monospace">tcp/6379 · Redis</text>
<line x1="671.5" y1="1073.5" x2="691.5" y2="1073.5" stroke="#9333ea" stroke-width="3.2" stroke-linecap="round"/>
<text x="697.5" y="1077.0" font-size="10" fill="#6b7280" font-family="ui-monospace, SFMono-Regular, Menlo, Consolas, monospace">tcp/5672 · AMQP</text>
<line x1="802.8" y1="1073.5" x2="822.8" y2="1073.5" stroke="#c2410c" stroke-width="3.2" stroke-linecap="round"/>
<text x="828.8" y="1077.0" font-size="10" fill="#6b7280" font-family="ui-monospace, SFMono-Regular, Menlo, Consolas, monospace">icmp · Ping</text>
<text x="92" y="1101.0" font-size="10" fill="#6b7280" font-family="ui-monospace, SFMono-Regular, Menlo, Consolas, monospace">○ OPENS THE CONNECTION · ARROWHEAD LANDS ON THE LISTENING ROW/PORT · SO INBOUND AND OUTBOUND ARE BOTH READABLE FROM ONE LINE</text>
<text x="92" y="46.0" font-size="14" fill="#1f2430" font-weight="700" letter-spacing="0.4">App Platform — Service Flows</text>
<text x="92" y="64.0" font-size="10" fill="#6b7280" font-family="ui-monospace, SFMono-Regular, Menlo, Consolas, monospace" letter-spacing="1">TRAFFIC · L4 FLOWS · 7 HOSTS · 13 FLOWS · 11 SERVICES</text>
</svg>